<?xml version="1.0" encoding="UTF-8"?>
<svg width="179px" height="37px" viewBox="0 0 179 37" version="1.1" xmlns="http://www.w3.org/2000/svg" xmlns:xlink="http://www.w3.org/1999/xlink">
    <!-- Generator: sketchtool 57.1 (101010) - https://sketch.com -->
    <title>6616BBC7-7A10-44F2-8DF2-9C8183A0872B</title>
    <desc>Created with sketchtool.</desc>
    <g id="Symbols" stroke="none" stroke-width="1" fill="none" fill-rule="evenodd">
        <g id="logo-login---White">
            <g id="logo-login">
                <g id="logo">
                    <g id="Group-3" transform="translate(0.000000, 26.000000)"></g>
                    <path d="M178.122706,29.8631338 C177.70633,29.5488134 176.652802,29.1485976 174.024792,28.995685 C172.172404,28.9079018 171.092731,28.7729234 170.721866,28.5718716 C170.320983,28.3528857 170.130225,27.7789914 170.130225,26.7963862 C170.130225,25.9704693 170.370367,25.4116775 170.830317,25.1539914 C171.261218,24.8925297 172.104621,24.7717098 173.481567,24.7717098 C174.61837,24.7717098 175.359132,24.8906419 175.707725,25.1143474 C176.055351,25.3616505 176.269349,25.9119471 176.331321,26.7576861 C176.331321,26.7576861 176.333258,26.8114887 176.339067,26.8596278 L178.654311,26.8596278 C178.656248,26.7076591 178.656248,26.5113269 178.656248,26.5113269 C178.656248,25.1171791 178.305717,24.1827131 177.598847,23.7088727 C176.888103,23.2454153 175.438534,23 173.294682,23 C171.049157,23 169.538584,23.2661812 168.802664,23.7834412 C168.093856,24.2874865 167.724928,25.3493797 167.724928,26.9238134 C167.724928,28.4737055 168.023169,29.4921791 168.615779,29.9339266 C169.02344,30.25863 170.102144,30.6673409 172.900577,30.8278047 L174.417928,30.9165318 C175.33105,30.9684466 175.922692,31.123247 176.223838,31.3752697 C176.526921,31.6433387 176.666358,32.1370011 176.666358,32.8874056 C176.666358,33.8728425 176.477537,34.504315 176.082464,34.8101402 C175.696106,35.0848166 174.88853,35.2131877 173.60648,35.2131877 C171.414212,35.2131877 170.844842,35.0064725 170.596953,34.8545038 C170.179609,34.6062567 169.971421,33.9615696 169.971421,32.8911812 C169.971421,32.8911812 169.971421,32.833603 169.969485,32.7882956 L167.679417,32.7882956 C167.681354,32.9355448 167.685227,33.1063916 167.685227,33.1063916 C167.685227,34.6761057 168.034789,35.7295038 168.738755,36.2297735 C169.443689,36.7460895 170.931991,37 173.163959,37 C175.642848,37 177.253158,36.7357066 177.963902,36.2080636 C178.648501,35.6992988 179,34.5307443 179,32.7288296 C179,31.2780475 178.7066,30.3105448 178.122706,29.8631338 L178.122706,29.8631338 Z M162.839773,34.0380259 C162.409841,34.6761057 161.490909,35.001753 160.099439,35.001753 L155.992811,35.001753 L155.992811,24.9859763 L160.274704,24.9859763 C161.65165,24.9859763 162.508609,25.3012406 162.897872,25.9298813 C163.264864,26.5264293 163.446908,27.862055 163.446908,30.0075512 C163.446908,32.0926375 163.252276,33.4084412 162.839773,34.0380259 L162.839773,34.0380259 Z M160.558421,23.1132686 L153.625278,23.1132686 L153.625278,36.8763484 L160.647506,36.8763484 C162.860108,36.8763484 164.292248,36.4025081 164.899382,35.4642665 C165.540407,34.4769417 165.858015,32.2257282 165.858015,28.7559331 C165.858015,26.6651834 165.461005,25.177589 164.685384,24.3450647 C163.915573,23.5304746 162.526039,23.1132686 160.558421,23.1132686 L160.558421,23.1132686 Z M148.285015,31.0703883 L148.30535,32.8911812 L148.367322,34.7072546 L147.90253,34.7988134 L147.352527,33.6415858 L146.788967,32.4834142 L145.638607,30.1746224 C145.638607,30.1746224 142.020978,23.3190399 141.91059,23.1132686 L137.574471,23.1132686 L137.574471,36.8763484 L139.925542,36.8763484 L139.925542,28.9598166 L139.904239,27.1050431 L139.870348,26.1941748 L139.832584,25.2531014 L140.307059,25.1757012 L140.759263,26.1875674 L141.231801,27.206041 L142.196244,29.2222222 C142.196244,29.2222222 146.176023,36.6771845 146.283506,36.8763484 L150.640928,36.8763484 L150.640928,23.1132686 L148.285015,23.1132686 L148.285015,31.0703883 Z M132.322325,34.2994876 C131.947587,34.8252427 130.915362,35.0772654 129.079434,35.0772654 C127.185408,35.0772654 126.119292,34.8648867 125.704853,34.3910464 C125.30397,33.9389159 125.111275,32.7326052 125.111275,30.6144822 C125.111275,26.877562 125.396928,26.0204962 125.613831,25.6957929 C125.978886,25.1681499 127.062432,24.9227346 129.022304,24.9227346 C130.925045,24.9227346 131.984383,25.1464401 132.339755,25.6419903 C132.691253,26.1139428 132.872328,27.5279126 132.872328,29.9471413 C132.872328,32.376753 132.685443,33.8020496 132.322325,34.2994876 L132.322325,34.2994876 Z M129.230492,23 C126.338132,23 124.515761,23.407767 123.805985,24.2251888 C123.073938,25.0426106 122.708883,27.1446872 122.708883,30.4426915 C122.708883,33.212109 123.079748,35.0064725 123.819542,35.8078479 C124.538032,36.5988403 126.215155,37 128.791845,37 C131.643535,37 133.457191,36.5912891 134.173745,35.7984088 C134.903855,34.9932578 135.27472,32.9789644 135.27472,29.8083873 C135.27472,26.9087109 134.903855,25.0256203 134.177618,24.2081985 C133.463001,23.4049353 131.796529,23 129.230492,23 L129.230492,23 Z M118.077427,34.5505663 C117.746263,34.8469525 117.099428,34.9857066 116.112714,34.9857066 L115.134715,35.001753 L111.932494,35.001753 L111.932494,30.6512945 L115.634366,30.6512945 C116.90286,30.6512945 117.678481,30.7692826 118.0416,31.0203614 C118.404718,31.2780475 118.577078,31.8538296 118.577078,32.7901834 C118.577078,33.6859493 118.414401,34.2551241 118.077427,34.5505663 L118.077427,34.5505663 Z M111.932494,24.9859763 L116.049774,24.9859763 C117.845032,24.9859763 118.215897,26.0186084 118.215897,26.877562 C118.215897,27.7940939 118.04741,28.3708198 117.693974,28.647384 C117.357,28.9079018 116.63851,29.0428803 115.48815,29.0428803 L111.932494,29.0428803 L111.932494,24.9859763 Z M118.654544,29.9782902 L118.640987,29.5488134 C119.974359,29.2562028 120.630877,28.3132416 120.630877,26.6557443 C120.630877,25.2785868 120.339414,24.3384574 119.773917,23.844795 C119.21423,23.3615156 118.109382,23.1132686 116.500041,23.1132686 L109.564961,23.1132686 L109.564961,36.8763484 L116.882525,36.8763484 C118.426021,36.8763484 119.482454,36.6054477 120.097335,36.0532632 C120.684134,35.5152373 120.984312,34.5430151 120.984312,33.1554746 C120.984312,31.2506742 120.218374,30.2067152 118.654544,29.9782902 L118.654544,29.9782902 Z M93.7010392,23.1132686 L91.341253,23.1132686 L91.341253,36.8763484 L100.502491,36.8763484 L100.502491,34.8469525 L93.7010392,34.8469525 L93.7010392,23.1132686 Z M80.1794739,32.5466559 L82.9101251,24.4054746 L85.6882239,32.5466559 L80.1794739,32.5466559 Z M80.958,23.1132686 C80.8660099,23.3690669 76.4059462,36.4025081 76.2432691,36.8763484 L78.7531443,36.8763484 C78.8325462,36.6394283 79.6556149,34.1503506 79.6556149,34.1503506 L86.2004631,34.1503506 C86.2004631,34.1503506 87.0487079,36.6394283 87.1290782,36.8763484 L89.5682663,36.8763484 C89.4065575,36.3940129 84.8874265,23.3690669 84.8012464,23.1132686 L80.958,23.1132686 Z M71.2603147,31.0703883 L71.2874276,32.8911812 L71.356178,34.7072546 L70.8846081,34.7988134 L69.7836328,32.4834142 L68.6197169,30.1746224 C68.6197169,30.1746224 65.0001515,23.3190399 64.89751,23.1132686 L60.5497709,23.1132686 L60.5497709,36.8763484 L62.9085888,36.8763484 L62.9085888,28.9598166 L62.8892225,27.1050431 L62.8572681,26.1941748 L62.8175671,25.2531014 L63.2901053,25.1757012 L64.2225937,27.206041 L65.1792899,29.2222222 C65.1792899,29.2222222 69.1697204,36.6771845 69.2781718,36.8763484 L73.6181643,36.8763484 L73.6181643,23.1132686 L71.2603147,23.1132686 L71.2603147,31.0703883 Z M55.3102128,34.2994876 C54.924823,34.8252427 53.8896931,35.0772654 52.0605441,35.0772654 C50.1781377,35.0772654 49.1081485,34.8648867 48.6898359,34.3910464 C48.2870165,33.9341963 48.0962582,32.7288296 48.0962582,30.6088188 C48.0962582,26.8549083 48.3857847,26.0053937 48.6017192,25.6957929 C48.9512813,25.1681499 50.0629081,24.9151834 52.01116,24.9151834 C53.898408,24.9151834 54.9625873,25.1407767 55.335389,25.6419903 C55.6781729,26.1158306 55.8534381,27.5279126 55.8534381,29.9471413 C55.8534381,32.3616505 55.6684897,33.788835 55.3102128,34.2994876 L55.3102128,34.2994876 Z M52.2174113,23 C49.3202097,23 47.4968706,23.407767 46.7851583,24.2251888 C46.0608579,25.0473301 45.6977393,27.1446872 45.6977393,30.4426915 C45.6977393,33.2196602 46.0686044,35.0196872 46.8122711,35.8078479 C47.5239834,36.5912891 49.1991702,36.9858414 51.7758592,36.9858414 C54.624645,36.9858414 56.4363643,36.5912891 57.1587281,35.7984088 C57.8839968,34.9857066 58.2519569,32.9742449 58.2519569,29.8083873 C58.2519569,26.9124865 57.8898067,25.028452 57.1693796,24.2081985 C56.4441109,23.4049353 54.7786072,23 52.2174113,23 L52.2174113,23 Z M40.1657497,36.8763484 L42.5245676,36.8763484 L42.5245676,23.1132686 L40.1657497,23.1132686 L40.1657497,36.8763484 Z M27.4507917,25.1539914 L31.6222972,25.1539914 L31.6222972,36.8763484 L33.9753052,36.8763484 L33.9753052,25.1539914 L38.3298225,25.1539914 L38.3298225,23.1132686 L27.4507917,23.1132686 L27.4507917,25.1539914 Z M18.7533769,32.5466559 L21.4753134,24.4054746 L24.2718101,32.5466559 L18.7533769,32.5466559 Z M19.5193149,23.1132686 C19.4302299,23.3690669 14.9875958,36.4025081 14.8229821,36.8763484 L17.328984,36.8763484 C17.4103226,36.6394283 18.2314546,34.1503506 18.2314546,34.1503506 L24.7792077,34.1503506 C24.7792077,34.1503506 25.6245476,36.6394283 25.7058862,36.8763484 L28.1489476,36.8763484 C27.9872388,36.3940129 23.4622979,23.3690669 23.3770861,23.1132686 L19.5193149,23.1132686 Z M10.7066706,31.0703883 L10.7308785,32.8911812 L10.7628329,33.8020496 L10.8083437,34.7072546 L10.3377421,34.7988134 L9.78289705,33.6368662 L9.22902027,32.4834142 L8.06800933,30.1746224 C8.06800933,30.1746224 4.44941225,23.3190399 4.34677075,23.1132686 L0,23.1132686 L0,36.8763484 L2.35107137,36.8763484 L2.35107137,28.9598166 L2.3471981,27.1154261 L2.33945158,25.2144013 L2.74420768,25.2144013 L3.19641128,26.2234358 L3.66701288,27.206041 L4.62951903,29.2222222 C4.62951903,29.2222222 8.61607621,36.6771845 8.7177494,36.8763484 L13.0722667,36.8763484 L13.0722667,23.1132686 L10.7066706,23.1132686 L10.7066706,31.0703883 Z" id="Fill-1" fill="#FFFFFF"></path>
                    <path d="M16.8883089,18.754251 L19.3797726,18.754251 L19.3797726,16.296561 L16.8883089,16.296561 L16.8883089,18.754251 Z M20.9697389,18.754251 L23.4457097,18.754251 L23.4457097,16.296561 L20.9697389,16.296561 L20.9697389,18.754251 Z M66.2179348,12.6980653 L64.1922286,12.6980653 C62.48316,12.6980653 61.6281416,11.7889424 61.6281416,9.98459755 C61.6281416,7.75766346 62.4337762,6.6242717 64.0256792,6.6242717 C64.9620357,6.6242717 65.6175821,6.99867094 65.940998,7.72986153 C66.1346601,8.1802527 66.2363328,8.91793041 66.2363328,9.99015793 L66.2179348,12.6980653 Z M75.8845817,10.3997729 C75.8845817,11.9159045 75.1486655,12.654509 73.6274492,12.654509 L70.2441712,12.6980653 L68.5341343,12.6980653 L68.5854548,9.98459755 C68.5854548,8.22380904 68.2020037,6.87819593 67.4409114,5.98668091 C66.682724,5.09887281 65.5294659,4.643848 64.0256792,4.643848 C62.411505,4.643848 61.1623841,5.22212801 60.3228586,6.34347227 C59.6276115,7.28966441 59.2809562,8.51202232 59.2809562,9.98459755 C59.2809562,11.3570858 59.6876467,12.4636024 60.4942496,13.2837592 C61.3424899,14.1660069 62.5848327,14.6340059 64.1864188,14.6599544 L65.9458395,14.6599544 L65.8896775,14.8842232 C65.5623884,16.1427237 64.5195177,17.0036566 63.2674918,17.0240446 C62.1345682,17.0638941 60.925148,16.8034827 59.5869424,16.2335433 C59.5869424,16.2335433 59.4155514,16.162185 59.2577167,16.0861931 L59.2577167,18.0684702 C59.4843015,18.1991393 60.90675,18.9192091 63.3275271,18.9970545 C64.6880038,19.0406108 65.8248007,18.6013404 66.7814917,17.6634889 C67.5319326,16.9480527 68.0199613,16.0102012 68.2601023,14.809158 L68.29012,14.6599544 L73.7455831,14.6599544 C75.0934717,14.6599544 76.1973461,14.2707275 77.0175053,13.5098815 C77.8241082,12.7342078 78.234672,11.7546534 78.234672,10.6073606 L78.234672,1.14265907 L75.8845817,1.14265907 L75.8845817,10.3997729 Z M108.35398,10.4915193 C108.35398,11.2245633 108.167096,11.759287 107.779772,12.1188586 C107.395352,12.4812103 106.824049,12.654509 106.047463,12.654509 L95.4773826,12.654509 C94.7037023,12.654509 94.1401454,12.4812103 93.7605676,12.1188586 C93.381958,11.7546534 93.1950741,11.2245633 93.1950741,10.4915193 L93.1950741,6.43892554 C92.8823097,6.44633939 91.1819559,6.45560669 90.8720964,6.45560669 L90.8720964,10.7130079 C90.8720964,13.0761715 92.5985946,14.6599544 95.1694598,14.6599544 L106.166566,14.6599544 C108.93303,14.6599544 110.653718,13.1447495 110.653718,10.7130079 L110.653718,1.14265907 L108.35398,1.14265907 L108.35398,10.4915193 Z M162.279209,12.654509 L151.005166,12.654509 L151.034215,12.4450678 C151.193018,11.229197 151.826294,10.048542 152.977615,8.82525733 C154.375856,7.28966441 155.856403,6.53345208 157.518993,6.53345208 C158.952093,6.53345208 160.771549,7.08671036 161.483257,8.13854981 C162.063276,9.05415983 162.345054,10.1875516 162.345054,11.604523 L162.279209,12.654509 Z M120.393956,12.6980653 L118.36825,12.6980653 C116.661118,12.6980653 115.79448,11.7889424 115.79448,9.98459755 C115.79448,8.86881367 115.992984,8.0569975 116.384181,7.49539864 C116.776347,6.92175228 117.392193,6.6242717 118.201701,6.6242717 C119.14774,6.6242717 119.788762,6.99867094 120.112178,7.72986153 C120.322301,8.18766654 120.414291,8.92441752 120.414291,9.99015793 L120.393956,12.6980653 Z M171.504306,10.3997729 C171.504306,11.9159045 170.76839,12.654509 169.240395,12.654509 L164.845233,12.654509 L164.650602,12.5331072 L164.662222,11.9437064 C164.662222,9.84558793 164.302979,8.2645852 163.580619,7.10246479 C162.345054,5.19247262 159.620227,4.40475145 157.469609,4.46776915 C154.832899,4.53634722 152.752967,5.66973898 151.262737,7.83828903 L150.229549,9.72974658 L149.855781,9.66024177 L149.855781,6.24338534 C149.54689,6.24338534 147.810709,6.22948438 147.498913,6.22948438 L147.498913,12.654509 L139.869592,12.654509 L139.849257,10.7871464 C139.708852,9.10791022 139.083323,7.72986153 138.018182,6.67524189 C136.910434,5.61876879 135.444411,5.08219166 133.672403,5.08219166 L132.753476,5.13501532 C132.753476,5.13501532 136.184201,1.67367581 136.720645,1.14265907 L133.636575,1.14265907 C133.525219,1.25572022 126.380054,8.31648212 125.789384,8.89754233 L128.940268,8.89754233 C128.979968,8.85305925 129.033226,8.79930886 129.033226,8.79930886 C130.082874,7.62977461 131.425922,7.05427478 133.116592,7.05427478 C134.398636,7.05427478 135.448285,7.4129196 136.244236,8.1292825 C136.813603,8.63527751 137.197054,9.36368792 137.35973,10.3061731 L137.462371,12.1911436 L137.458498,12.6980653 L122.715966,12.6980653 L122.723712,12.1698288 L122.761476,9.98459755 C122.761476,8.22380904 122.385772,6.87819593 121.621775,5.98668091 C120.858746,5.09887281 119.709361,4.643848 118.201701,4.643848 C116.582685,4.643848 115.338406,5.22212801 114.50469,6.34347227 C113.804601,7.28966441 113.456978,8.51202232 113.456978,9.98459755 C113.456978,11.3570858 113.865605,12.4636024 114.675113,13.2837592 C115.526258,14.1660069 116.762791,14.6340059 118.364377,14.6599544 L120.125734,14.6599544 L120.072477,14.8842232 C119.749061,16.1427237 118.697476,17.0036566 117.449323,17.0240446 C116.308653,17.0638941 115.100201,16.8034827 113.759091,16.2335433 C113.759091,16.2335433 113.598351,16.162185 113.433738,16.0861931 C113.433738,16.5041487 113.437612,17.9795041 113.437612,18.1991393 C114.491134,18.5651979 116.500379,18.9970545 117.492897,18.9970545 C118.917282,18.9970545 120.051174,18.5587108 120.961387,17.6634889 C121.707954,16.9480527 122.197919,16.0102012 122.438061,14.809158 L122.46711,14.6599544 L169.363371,14.6599544 C170.714164,14.6599544 171.811261,14.2707275 172.627547,13.5098815 C173.440928,12.7342078 173.845682,11.7546534 173.845682,10.6073606 L173.845682,1.14265907 L171.504306,1.14265907 L171.504306,10.3997729 Z M81.0340586,14.6599544 L83.381244,14.6599544 L83.381244,1.14265907 L81.0340586,1.14265907 L81.0340586,14.6599544 Z M54.1779582,12.654509 L42.9068204,12.654509 L42.9746021,12.4172659 C43.3677363,11.036437 44.0716983,9.78257023 45.0680901,8.6890279 C46.4227569,7.18679729 48.7922135,6.45097304 50.332796,6.51677093 C51.6041881,6.57793516 52.610263,7.08300344 53.3306863,8.02826885 C53.9291023,9.07640137 54.2244371,10.2672504 54.2244371,11.6990495 L54.1779582,12.654509 Z M7.05414426,9.42392542 C7.05414426,10.4970797 6.89727791,11.3302107 6.59419663,11.8148909 C6.25625615,12.4061451 5.6152344,12.6980653 4.70114899,12.6980653 C3.78222203,12.6980653 3.14894676,12.4061451 2.81294291,11.8204512 C2.507925,11.3302107 2.34718541,10.5017133 2.34718541,9.42392542 C2.34718541,8.34150385 2.507925,7.52690749 2.81003798,7.05427478 C3.15378831,6.48248189 3.78996852,6.20353592 4.70114899,6.20353592 L7.05414426,6.20353592 L7.05414426,9.42392542 Z M50.1972325,4.46776915 L50.1972325,4.46776915 C47.3959093,4.53634722 44.687544,5.76241206 43.310606,7.57973114 L42.9552359,8.04495 L42.9552359,1.14265907 L40.6099871,1.14265907 L40.6099871,12.654509 L35.7684331,12.6980653 L34.5260903,12.6980653 C32.9951909,12.6980653 32.2418451,11.9909697 32.2418451,10.5137608 L32.2418451,4.32968626 L29.9188675,4.32968626 L29.9188675,10.4424026 C29.9188675,11.9650212 29.16649,12.6980653 27.6123511,12.6980653 L23.6016077,12.6980653 C22.0629618,12.6980653 21.3222041,11.9909697 21.3222041,10.5137608 L21.3222041,4.32968626 L18.9972898,4.32968626 L18.9972898,10.4424026 C18.9972898,11.9650212 18.2449123,12.6980653 16.6869002,12.6980653 L11.6623354,12.6980653 C10.1430558,12.6980653 9.40036136,11.9650212 9.40036136,10.4424026 L9.40036136,4.34822087 L4.56171223,4.34822087 C1.53089939,4.34822087 0,6.06081938 0,9.42392542 C0,12.8973124 1.53089939,14.6599544 4.56171223,14.6599544 C6.1352173,14.6599544 7.24877474,14.2132701 7.8636521,13.3245353 L8.03020156,13.0909992 L8.18706791,13.3245353 C8.77192764,14.2132701 9.90485129,14.6599544 11.551948,14.6599544 L16.8282736,14.6599544 C18.1383981,14.6599544 19.2151597,14.2818482 20.0450021,13.5469507 L20.1815339,13.4301826 L20.3103193,13.5469507 C21.1343518,14.2818482 22.1994937,14.6599544 23.462171,14.6599544 L27.7575977,14.6599544 C29.0609441,14.6599544 30.1444839,14.2818482 30.9694847,13.5469507 L31.1002066,13.4301826 L31.2377068,13.5469507 C32.0636759,14.2818482 33.1181664,14.6599544 34.3885902,14.6599544 L56.3866752,14.6599544 C56.3934534,14.3865688 56.4137879,13.5673388 56.4137879,13.5673388 L56.4409006,12.7620097 L56.4738232,11.4896084 C56.4738232,9.68711696 56.1261996,8.213615 55.4280475,7.10246479 C54.2525181,5.27958532 52.4940657,4.40197126 50.1972325,4.46776915 L50.1972325,4.46776915 Z M176.645068,14.6599544 L179,14.6599544 L179,1.14265907 L176.645068,1.14265907 L176.645068,14.6599544 Z M6.64164386,2.45120294 L9.11374136,2.45120294 L9.11374136,0 L6.64164386,0 L6.64164386,2.45120294 Z M105.724048,6.45560669 L101.005469,6.45560669 L101.005469,5.84859802 C101.005469,5.27217147 101.144906,4.87553069 101.434431,4.6290203 L102.315594,4.36675549 C102.763921,4.36675549 103.142531,4.5687828 103.476598,4.97839781 C103.476598,4.97839781 103.547285,5.06365704 103.5957,5.12018762 L105.426776,5.12018762 C105.299928,4.69111127 104.827392,4.14712029 104.594997,3.94138606 C103.966564,3.31028239 103.236457,2.97109892 102.48989,2.97109892 C101.581614,2.97109892 100.805997,3.28340719 100.257933,3.86724759 C99.7437601,4.41865241 99.4581084,5.19988647 99.4581084,6.06081938 L99.4581084,6.45560669 L96.0215733,6.45560669 L96.0215733,7.87072461 L105.724048,7.87072461 L105.724048,6.45560669 Z M29.7436032,2.45120294 L32.3096268,2.45120294 L32.3096268,0 L29.7436032,0 L29.7436032,2.45120294 Z M2.5611821,2.45120294 L5.05264581,2.45120294 L5.05264581,0 L2.5611821,0 L2.5611821,2.45120294 Z" id="Fill-4" fill="#FFFFFF"></path>
                </g>
            </g>
        </g>
    </g>
</svg>